<?xml version="1.0" encoding="utf-8"?>
<!-- Uploaded to: SVG Repo, www.svgrepo.com, Generator: SVG Repo Mixer Tools -->
<svg width="800px" height="800px" viewBox="0 0 48 48" fill="none" xmlns="http://www.w3.org/2000/svg">
<g id="laptop">
<g id="laptop_2">
<path id="Combined Shape" fill-rule="evenodd" clip-rule="evenodd" d="M40 13V27C40 27.5523 39.5523 28 39 28C38.4477 28 38 27.5523 38 27V13C38 12.4474 37.5529 12 37 12H11C10.4471 12 10 12.4474 10 13V30H20.0624H28.0624H34V15.9842H14V26.9122C14 27.4645 13.5523 27.9122 13 27.9122C12.4477 27.9122 12 27.4645 12 26.9122V15.3842C12 14.6098 12.6278 13.9842 13.4 13.9842H34.6C35.3722 13.9842 36 14.6098 36 15.3842V30H42C43.1043 30 44 30.8957 44 32V34C44 36.2097 42.2089 38 40 38H8C5.79113 38 4 36.2097 4 34V32C4 30.8957 4.89572 30 6 30H8V13C8 11.3432 9.34225 10 11 10H37C38.6577 10 40 11.3432 40 13ZM20.0624 32V33C20.0624 33.552 20.5104 34 21.0624 34H27.0624C27.6144 34 28.0624 33.552 28.0624 33V32H42V34C42 35.1049 41.1045 36 40 36H8C6.89549 36 6 35.1049 6 34V32H8V33C8 33.5523 8.44772 34 9 34C9.55228 34 10 33.5523 10 33V32H20.0624Z" fill="#000000"/>
</g>
</g>
</svg>