<?xml version="1.0" encoding="UTF-8" standalone="no"?>
<svg
   id="Objects"
   version="1.1"
   viewBox="0 0 2200 1466"
   sodipodi:docname="arrow.svg"
   inkscape:version="1.3.2 (091e20e, 2023-11-25)"
   xmlns:inkscape="http://www.inkscape.org/namespaces/inkscape"
   xmlns:sodipodi="http://sodipodi.sourceforge.net/DTD/sodipodi-0.dtd"
   xmlns="http://www.w3.org/2000/svg"
   xmlns:svg="http://www.w3.org/2000/svg">
  <defs
     id="defs1" />
  <sodipodi:namedview
     id="namedview1"
     pagecolor="#505050"
     bordercolor="#eeeeee"
     borderopacity="1"
     inkscape:showpageshadow="0"
     inkscape:pageopacity="0"
     inkscape:pagecheckerboard="0"
     inkscape:deskcolor="#505050"
     inkscape:zoom="0.16098226"
     inkscape:cx="1102.6059"
     inkscape:cy="733"
     inkscape:window-width="1312"
     inkscape:window-height="449"
     inkscape:window-x="0"
     inkscape:window-y="38"
     inkscape:window-maximized="0"
     inkscape:current-layer="Objects" />
  <!-- Generator: Adobe Illustrator 29.7.1, SVG Export Plug-In . SVG Version: 2.1.1 Build 8)  -->
  <path
     d="M2071.12,1111.43c4.13-2.25,4.88-5.47,4.18-8.7-1.47-6.6-8.98-12.14-17.85-13.58-34.98-6.14-61.81-14.26-83.1-21.66-5.31-1.91-10.31-3.67-15-5.44-4.63-1.92-8.98-3.72-13.09-5.42-2.05-.86-4.04-1.7-5.97-2.52-.96-.41-1.91-.81-2.85-1.21-.92-.44-1.83-.86-2.72-1.29-3.57-1.71-6.94-3.32-10.13-4.84-3.18-1.54-6.2-3.01-9.07-4.4-2.82-1.51-5.5-2.95-8.08-4.33-5.15-2.76-9.88-5.3-14.46-7.75-2.32-1.33-4.6-2.62-6.89-3.88-.11-.62-.35-1.32-.76-1.96-.68-1.09-1.76-2.02-2.71-2.36-.49-.2-.86-.2-1.21-.18l-1.04.12c-.66.07-1.31.14-1.97.21-1.87-.99-3.77-1.97-5.72-2.96-2.32-1.27-4.7-2.57-7.18-3.87-1.96-1.16-5.77-3.43-11.44-6.79-2.87-1.62-6.05-3.78-9.75-6.11-3.69-2.35-7.83-5-12.42-7.93-4.53-3.04-9.42-6.49-14.8-10.18-1.34-.93-2.71-1.87-4.11-2.84-.7-.48-1.4-.97-2.11-1.47-.69-.52-1.39-1.04-2.1-1.57-2.83-2.11-5.77-4.3-8.81-6.57-1.53-1.15-3.1-2.31-4.69-3.49-.03-2.48-1.22-3.23-2.85-3.09-.31.03-.64.1-.98.2-.31-.24-.61-.46-.91-.7-3.17-2.55-6.44-5.18-9.81-7.9-1.72-1.38-3.46-2.77-5.21-4.17-.88-.7-1.75-1.41-2.64-2.11-.87-.75-1.74-1.5-2.62-2.26-1.75-1.51-3.51-3.04-5.29-4.58-1.78-1.56-3.58-3.24-5.39-4.87-7.25-6.59-14.71-13.38-22.39-20.36-2.14-1.23-4.34-2.48-6.59-3.77-.56-.32-1.13-.65-1.7-.97l-.86-.49c-.26-.13-.66-.42-.72-.33-.54.04-1.08.07-1.63.11-2.2.16-4.5.32-6.87.49-1.19.09-2.39.18-3.61.28-.61.05-1.23.1-1.85.15l-.93.08-.47.04c-.16,0-.22.08-.46.19-.43.22-1.11.61-1.59.93-.52.34-.61.43-.84.61-.41.31-.83.64-1.26,1.03l-.64.56-.65.67-.65.67c-.22.23-.43.54-.65.81l-.66.83c-.22.28-.44.53-.65.92-.42.71-.84,1.42-1.26,2.13-.23.31-.39.81-.57,1.29l-.53,1.42c-.32,1-.82,1.71-.86,3.23-.14,1.34-.28,2.69-.41,4.04l-.1,1.01c0,.38.13.91.19,1.36l.46,2.81c.31,1.88.62,3.77.92,5.65.4,1.99.81,3.99,1.21,5.99,3.26,16.02,7.59,33.33,12.63,50.4,5.31,17.8,11.46,35.17,18.1,50.5,6.54,15.36,13.66,28.64,19.74,38.51,5.21,8.22,10.98,16.26,17.57,23.93.53.59,1.05,1.18,1.58,1.78-20.62.47-47.92,1.15-83,1-6.87.27-13.75.33-20.63.42l-10.31.14-10.31-.04c-23.36.28-72.37.87-123.57-2.26-25.6-1.48-51.74-3.59-75.51-6.13-23.77-2.46-45.07-5.34-61.17-7.65-14.1-1.92-28.07-4.49-42-7.3-13.85-3.05-27.68-6.29-41.22-10.39-15.94-4.71-34.57-10.82-54.62-19.11-20.04-8.26-41.49-18.83-62.9-31.96-10.65-6.57-21.27-13.89-31.63-21.96-2.66-2.07-5.3-4.19-7.93-6.35l2.76-1.27,2.97-1.5,5.94-3,5.93-3.01c1.97-1.02,3.89-2.14,5.84-3.21l5.83-3.24c1.93-1.11,3.91-2.11,5.79-3.3l11.4-6.96c1.91-1.13,3.78-2.39,5.65-3.62,1.87-1.24,3.76-2.44,5.59-3.74,29.59-20.26,56.25-44.79,78.55-73.09,22.25-28.28,40.12-60.53,50.72-95.57,3.58-11.39,6.63-23.88,8.67-37.31.53-3.35.89-6.78,1.34-10.24.29-3.48.67-6.98.87-10.58.08-1.8.16-3.62.25-5.45.04-.91.08-1.83.12-2.75,0-.92,0-1.84,0-2.77,0-1.85,0-3.71,0-5.58.02-1.87-.14-3.75-.2-5.64-.7-15.1-2.91-30.87-7.7-46.73-.61-1.98-1.22-3.96-1.83-5.96-.72-1.97-1.45-3.95-2.17-5.93l-1.1-2.98c-.39-.99-.84-1.96-1.26-2.95-.86-1.96-1.72-3.93-2.59-5.9-.93-1.95-1.96-3.88-2.95-5.82l-1.51-2.92c-.51-.97-1.11-1.9-1.67-2.86-1.14-1.9-2.28-3.8-3.43-5.71-1.23-1.87-2.54-3.7-3.82-5.55l-1.94-2.77c-.69-.9-1.42-1.78-2.13-2.67-1.43-1.77-2.86-3.56-4.33-5.32-1.57-1.68-3.15-3.37-4.74-5.06-.81-.83-1.57-1.71-2.42-2.5l-2.58-2.37c-1.74-1.56-3.43-3.18-5.24-4.69-1.84-1.47-3.65-3-5.58-4.36l-2.87-2.09-2.95-1.97c-1.95-1.35-4.02-2.51-6.04-3.76-8.2-4.77-16.94-8.63-25.93-11.64-9.01-2.93-18.27-5.05-27.62-6.28-18.71-2.45-37.71-1.64-56.11,2.06-9.2,1.84-18.27,4.39-27.08,7.68-4.42,1.61-8.75,3.47-13.03,5.42-4.18,2.07-8.4,4.05-12.41,6.4-4.11,2.19-7.99,4.74-11.92,7.19-3.79,2.64-7.66,5.18-11.26,8.05l-2.73,2.1-1.36,1.05-1.31,1.11c-1.75,1.48-3.5,2.96-5.24,4.44-1.72,1.5-3.36,3.09-5.04,4.63l-2.49,2.33-2.39,2.42c-12.82,12.83-23.62,27.17-32.62,42.08-2.18,3.77-4.4,7.49-6.35,11.33-2.07,3.78-3.86,7.67-5.7,11.5-3.49,7.75-6.72,15.52-9.33,23.39-5.43,15.66-8.98,31.46-11.16,46.89-.31,1.92-.52,3.85-.73,5.77-.21,1.92-.42,3.83-.63,5.73-.14,1.91-.28,3.81-.42,5.7-.13,1.89-.3,3.77-.34,5.65-.12,3.76-.31,7.47-.25,11.16,0,1.84.01,3.68.02,5.5.07,1.82.15,3.64.22,5.44.28,7.21.99,14.25,1.88,21.08.44,3.42,1.06,6.77,1.59,10.08.62,3.28,1.29,6.47,1.94,9.64,2.81,12.6,6.36,24.22,10.27,34.74,3.92,10.52,8.2,19.94,12.43,28.26,7.79,16.36,19.33,36.31,35.18,57.11,5.52,7.27,11.61,14.61,18.2,21.93-4.79,1.65-9.44,3.25-14,4.6-2.83.88-5.6,1.73-8.29,2.57-2.7.84-5.38,1.53-7.96,2.27-20.72,5.81-37.32,9.43-48.1,11.49-15.67,3.11-31.45,5.88-47.25,8.7-4.16.71-8.64,1.55-13.46,2.31-4.82.77-9.94,1.58-15.35,2.44-10.79,1.64-22.73,3.25-35.66,4.59-12.92,1.35-26.83,2.36-41.51,2.73-7.34.17-14.87.2-22.55-.06-3.85-.08-7.71-.33-11.64-.52-3.9-.3-7.86-.54-11.82-.98-3.98-.35-7.96-.9-11.98-1.41-4-.62-8.05-1.2-12.07-2-8.07-1.53-16.21-3.37-24.24-5.81-16.06-4.86-32.01-11.57-46.61-20.95-14.61-9.33-28.04-21.01-39.09-34.97-11.12-13.9-20.05-29.8-26.71-46.7-4.86-12.5-8.48-25.07-10.92-37.6-2.47-12.52-4.02-24.94-4.68-37.24-1.34-24.61.22-48.69,4.15-72.63l.75-4.49.84-4.48c.52-2.99,1.22-6.01,1.85-9.02.64-3.02,1.29-6.04,1.94-9.08.74-3.03,1.47-6.06,2.21-9.11,1.4-6.11,3.16-12.23,4.79-18.43.79-3.1,1.76-6.2,2.65-9.33.92-3.13,1.79-6.27,2.75-9.44,7.61-25.32,16.65-51.81,26.25-81.1,4.89-14.92,9.68-29.89,14.14-44.92,4.53-15,8.58-30.14,12.16-45.28,7.27-30.26,11.79-61.33,10.68-91.97-.57-15.31-2.61-30.52-6.57-45.14-3.94-14.61-9.85-28.6-17.66-41.13-7.71-12.63-17.46-23.59-28.08-32.73-10.66-9.13-22.22-16.44-33.99-22.16-1.46-.75-2.94-1.42-4.42-2.08-1.48-.65-2.95-1.35-4.43-1.96-2.98-1.19-5.92-2.43-8.9-3.45-5.92-2.18-11.87-3.92-17.73-5.46-11.77-2.96-23.31-4.87-34.44-5.79-22.28-1.86-42.83-.32-60.8,3.06-17.93,3.61-33.09,8.34-45.7,13.05-12.52,4.85-22.55,9.29-29.88,12.97-14.92,7.24-27.69,14.59-38.66,21.61-2.78,1.71-5.4,3.46-7.94,5.16-2.53,1.7-5,3.33-7.34,4.97-4.65,3.31-9.03,6.36-12.96,9.37-15.85,11.94-26.37,21.32-33.25,28.36-13.73,14.1-12.88,18.9-7.19,19.66,9.03,1.22,29.27-8.46,48.41-21.65,18.92-12.95,37.05-24.52,54.78-34.03,17.71-9.53,34.93-17.19,51.61-22.85,1.04-.36,2.08-.73,3.11-1.09,1.04-.31,2.08-.62,3.12-.93,2.07-.62,4.13-1.24,6.17-1.86,2.03-.66,4.09-1.14,6.12-1.64,2.03-.51,4.05-1.01,6.05-1.51,7.95-1.9,15.68-3.14,23.32-3.96,15.25-1.6,29.81-1.43,43.29.2,27.02,3.17,49.7,11.72,67.02,22.84,8.71,5.53,16.05,11.77,22.3,18.23,6.17,6.54,11.19,13.31,15.15,20.28.99,1.74,1.97,3.47,2.93,5.16.83,1.78,1.65,3.53,2.45,5.27.41.86.81,1.72,1.22,2.57.34.89.67,1.77,1.01,2.65.67,1.75,1.33,3.48,1.99,5.18.59,1.74,1.07,3.5,1.61,5.22.5,1.73,1.12,3.39,1.47,5.14.41,1.73.81,3.43,1.2,5.12.19.85.43,1.67.57,2.53.15.85.29,1.7.43,2.55,2.43,13.49,3.04,26.41,2.75,39-.31,12.6-1.54,24.89-3.4,37.47-.47,3.15-.93,6.31-1.53,9.5-.56,3.19-1.1,6.42-1.78,9.68-.32,1.63-.64,3.27-.97,4.92-.32,1.65-.73,3.34-1.09,5.03-.74,3.38-1.48,6.82-2.24,10.32-.89,3.4-2.3,8.74-4.17,15.81-1.01,3.53-2.14,7.5-3.39,11.88-1.22,4.37-2.75,9.15-4.29,14.31-3.16,10.32-6.99,22.16-11.36,35.35-4.44,13.28-9.32,27.87-14.56,43.56-5.22,15.83-10.71,32.93-15.96,51.26-5.23,18.33-10.24,37.91-14.08,58.67-3.89,20.96-6.27,43.01-6.58,65.72-.29,22.7,1.49,46.1,6.28,69.5,2.39,11.69,5.55,23.37,9.59,34.88,4.06,11.5,9.03,22.81,14.98,33.69,5.95,10.88,12.9,21.32,20.82,31.03,7.9,9.7,16.8,18.66,26.39,26.58,9.59,7.93,19.88,14.89,30.57,20.79,10.69,5.91,21.75,10.77,32.89,14.73,22.31,7.92,44.83,12.3,66.47,14.58,21.67,2.27,42.52,2.52,62.23,1.83,19.7-.76,38.29-2.43,55.55-4.52,4.32-.5,8.55-1.07,12.7-1.61,4.12-.58,8.17-1.15,12.14-1.7,3.97-.54,7.87-1.16,11.68-1.74,3.81-.6,7.55-1.14,11.19-1.75,7.29-1.27,14.25-2.35,20.84-3.64,3.29-.62,6.49-1.22,9.6-1.8,3.11-.58,6.11-1.25,9.02-1.84,8.51-1.73,16.98-3.78,25.46-5.77l12.68-3.26c4.23-1.05,8.44-2.27,12.64-3.47,8.43-2.3,16.78-5.03,25.15-7.64,8.31-2.88,16.65-5.63,24.85-8.87.15-.05.29-.11.44-.17,4.47,4.03,9.09,8.02,13.87,11.92,5.99,4.98,12.3,9.74,18.73,14.48,6.5,4.65,13.14,9.27,20.03,13.62,1.7,1.12,3.45,2.18,5.19,3.25,1.75,1.06,3.48,2.17,5.25,3.19,3.55,2.03,7.11,4.07,10.68,6.11,3.54,2.1,7.21,3.97,10.87,5.88l5.5,2.87c1.83.96,3.66,1.93,5.54,2.79,3.74,1.78,7.48,3.56,11.22,5.34l2.81,1.33,2.85,1.24,5.7,2.47c7.56,3.41,15.3,6.3,22.97,9.35,3.85,1.46,7.74,2.8,11.6,4.19,1.93.69,3.86,1.38,5.79,2.07,1.94.63,3.88,1.27,5.82,1.9,3.88,1.26,7.74,2.51,11.6,3.76,3.88,1.14,7.74,2.28,11.59,3.41,1.93.56,3.84,1.15,5.76,1.68,1.93.51,3.85,1.02,5.77,1.53,3.84,1.01,7.65,2.05,11.45,3.02,3.81.91,7.6,1.82,11.36,2.73,1.88.44,3.76.92,5.63,1.33,1.88.4,3.75.81,5.61,1.21,3.73.8,7.42,1.6,11.09,2.39,3.68.71,7.32,1.42,10.94,2.12,7.22,1.46,14.34,2.58,21.29,3.82,27.83,4.66,53.24,7.6,74.7,9.77,2.68.3,5.31.55,7.87.76,2.56.23,5.06.45,7.49.66,4.86.42,9.45.82,13.75,1.19,8.61.61,16.06,1.13,22.16,1.56,12.22.65,19.04,1.02,19.04,1.02,0,0,2.12.08,6,.23,3.89.07,9.53.18,16.59.31,14.1.26,33.83.13,56.28-.54,22.44-.84,47.6-2.41,72.53-4.87,24.93-2.55,49.61-6.02,71.18-9.83,4.61-.84,9.07-1.69,13.37-2.56l-1.34,2.18c-.62,1.01-1.16,2.04-1.74,3.06l-3.43,6.13-1.71,3.07c-.56,1.03-1.06,2.07-1.59,3.11-8.71,16.49-15.7,33.53-22.04,50.72-1.6,4.2-3.31,8.7-5.12,13.45-.95,2.37-1.7,4.85-2.55,7.37-.83,2.53-1.68,5.12-2.55,7.76-.87,2.64-1.75,5.34-2.65,8.09-.47,1.37-.86,2.77-1.25,4.18-.4,1.41-.79,2.83-1.2,4.27-1.6,5.74-3.24,11.66-4.93,17.71-1.47,6.09-2.88,12.34-4.34,18.68-.72,3.17-1.45,6.37-2.18,9.58-.6,3.23-1.2,6.49-1.8,9.75-1.19,6.54-2.39,13.13-3.59,19.73-.91,6.63-1.83,13.28-2.74,19.9-.45,3.31-.89,6.62-1.33,9.91l-.33,2.47-.04.31-.03.3c-.04.4-.07.8-.09,1.21-.04.81-.03,1.61.02,2.43.23,3.52,1.49,7.32,3.73,10.45,2.2,3.1,5.08,5.37,8.16,6.8,3.07,1.41,6.42,2.09,9.95,1.89,3.52-.18,7.38-1.43,10.54-3.65,3.26-2.27,5.44-5.19,6.8-8l.56-1.16,1.01-2.07c1.33-2.75,2.66-5.49,3.98-8.21,1.35-2.7,2.79-5.34,4.16-7.98.69-1.32,1.37-2.63,2.06-3.94.68-1.31,1.44-2.57,2.14-3.85,1.43-2.55,2.85-5.07,4.25-7.56,1.41-2.49,2.92-4.87,4.33-7.26.71-1.19,1.42-2.38,2.13-3.55.35-.59.7-1.17,1.05-1.76.37-.57.73-1.14,1.1-1.71,11.46-18.29,22.58-33.35,30.37-44.14,2.1-2.45,4.47-5.23,7.09-8.28,2.68-3,5.71-6.18,8.9-9.62,3.24-3.39,6.83-6.86,10.52-10.56,1.91-1.78,3.86-3.6,5.85-5.46,2-1.84,3.99-3.77,6.14-5.59,16.83-14.91,36.94-30.15,56.97-42.45,19.94-12.44,39.53-22.24,54.18-28.57,7.36-3.08,13.35-5.65,17.6-7.18,4.22-1.6,6.58-2.49,6.58-2.49,0,0,.72-.32,2.05-.84,1.34-.52,3.28-1.28,5.7-2.23,1.21-.48,2.54-1.01,3.98-1.58.72-.29,1.46-.59,2.23-.89.78-.28,1.58-.58,2.4-.88,3.29-1.22,6.95-2.58,10.84-4.03,3.93-1.34,8.09-2.8,12.37-4.32,4.32-1.38,8.75-2.85,13.17-4.33,4.46-1.34,8.89-2.78,13.21-4.16,4.34-1.27,8.53-2.59,12.46-3.9,3.95-1.18,7.63-2.38,10.91-3.59,1.63-.61,3.18-1.19,4.61-1.73,1.43-.56,2.74-1.11,3.91-1.68,4.7-2.25,7.24-4.54,6.43-6.79-.39-1.07-1.54-2.12-3.57-3.16ZM1072.09,915.29l-2.46-4.49c-1.68-2.97-3.15-6.05-4.72-9.07-2.97-6.12-5.81-12.28-8.26-18.55-2.56-6.24-4.69-12.59-6.73-18.92-1.88-6.38-3.67-12.74-5.01-19.15-1.46-6.39-2.47-12.82-3.34-19.06-.17-1.58-.33-3.16-.5-4.73-.16-1.57-.36-3.14-.44-4.71-.19-3.15-.47-6.27-.5-9.4-.38-12.49.34-24.76,2.02-36.54,3.4-23.57,10.47-45.03,19.22-63.03,4.37-9.01,9.16-17.17,14.06-24.45,4.91-7.28,10.02-13.6,14.9-19.13,10.04-11.26,21.42-21.14,33.89-29.22l4.71-2.97,4.84-2.74c1.59-.95,3.26-1.75,4.92-2.58,1.66-.8,3.3-1.73,4.97-2.44,6.64-3.05,13.55-5.6,20.65-7.57,8.05-2.31,17.46-4.1,27.87-4.86,10.4-.73,21.85-.31,33.56,2.1,11.68,2.42,23.68,6.77,34.52,13.88,2.74,1.73,5.34,3.72,7.93,5.77,1.24,1.11,2.49,2.22,3.74,3.34.62.57,1.28,1.09,1.88,1.69l1.76,1.85c4.86,4.79,9.13,10.46,13.04,16.57,3.97,6.08,7.22,12.89,10.07,20.03,2.89,7.13,5.05,14.77,6.72,22.65l.62,2.96.31,1.49.23,1.51c.31,2.01.63,4.03.94,6.05.42,4.08.96,8.18,1.11,12.34l.19,3.12c.06,1.04.04,2.09.06,3.13,0,2.09.11,4.19.04,6.29-.07,2.1-.13,4.2-.2,6.31-.11,2.12-.31,4.26-.45,6.39-2.8,34.2-14.9,68.56-33.4,98.82-9.16,15.2-19.92,29.38-31.54,42.44-5.81,6.53-11.92,12.72-18.16,18.65-3.1,2.98-6.31,5.82-9.49,8.65-3.24,2.76-6.44,5.54-9.74,8.15-6.55,5.28-13.19,10.27-19.94,14.87-1.67,1.18-3.36,2.31-5.06,3.41-1.71,1.1-3.34,2.26-5.09,3.29-3.45,2.11-6.87,4.2-10.25,6.26-.85.51-1.68,1.05-2.54,1.54-.86.48-1.73.96-2.59,1.44-1.72.96-3.43,1.91-5.13,2.85-1.7.95-3.39,1.89-5.08,2.82-1.68.94-3.42,1.75-5.12,2.63-3.4,1.72-6.77,3.42-10.09,5.1-3.39,1.56-6.74,3.09-10.04,4.61-1.65.75-3.28,1.53-4.93,2.25-.37.15-.73.3-1.1.46-16.77-17.31-31.96-36.72-44.29-57.64l-2.59-4.43ZM1966.39,1094.9c-5.63,4.09-12.7,9.51-21.45,16.48l-5.44,4.78-1.36,1.19-.68.6c-.09.06-.12.06-.18.09-.21.09-.4.16-.57.21-.61.29-1.27.61-1.62.68-.1,0-.15.05-.25,0-.12-.07-.22-.4-.07-.65.19-.38.39-.77.58-1.16,0,.14-.04.34-.09.55,1.91-5.85,3.77-11.56,5.54-17,1.14-3.52,2.24-6.96,3.32-10.28.31-.99.65-2,.93-2.94,7.48,2.76,14.62,5.24,21.33,7.45ZM1912.69,1074.55c2.54,1.07,5.05,2.15,7.53,3.21-25,26.89-73.09,78.61-110.76,119.11,2.83-4.58,5.83-9.37,8.99-14.3,12.58-19.78,27.59-41.87,42.61-63.13,7.52-10.62,15.05-21.03,22.27-30.85,3.71-5.01,7.33-9.89,10.81-14.59,1.22-1.69,2.09-4.29,1.96-6.8,5.6,2.62,11.11,5.12,16.6,7.35ZM1808.66,1100.75c-.43-.39-.84-.78-1.26-1.17-.45-.42-.89-.83-1.34-1.24-.43-.41-.81-.84-1.22-1.25-1.01-1.04-2-2.07-2.97-3.07-.75-.87-1.49-1.71-2.21-2.54-.72-.83-1.44-1.62-2.11-2.44-.66-.84-1.29-1.65-1.92-2.44-.62-.79-1.23-1.56-1.82-2.31-.57-.77-1.1-1.54-1.63-2.28-.55-.79-1.09-1.54-1.61-2.27.24-.12.49-.24.73-.36,2.23-1.09,4.5-2.2,6.83-3.34,4.66-2.28,9.51-4.65,14.53-7.11,10.81-5.27,23.14-11.29,36.38-17.75l1.18-.58.25-.12h.02s.08-.04.08-.04l.15-.06.26-.1.22-.08c.05-.06.18.03.09.14l-.41.41-.08.08-.04.04-.02.02h0s-.43.51-.43.51c-4.39,5.19-8.76,10.38-13.12,15.54-9.63,11.41-19.18,22.72-28.54,33.82ZM1847.16,1081.85c.49-.77,1.15-1.75,2.01-2.95,1.71-2.41,4.23-5.76,7.44-9.86.83-1.06,1.67-2.12,2.52-3.2l1.34-1.68c.97-1.18,1.94-2.36,2.91-3.54,1.85-2.22,3.7-4.45,5.56-6.68,1.82.94,3.64,1.88,5.44,2.81,1.24.64,2.47,1.28,3.7,1.91-.13.09-.26.19-.37.27l-.07.06-.28.23-.56.47c-.37.31-.74.62-1.1.92-5.83,4.87-10.75,8.88-12.5,10.11-1.3.91-2.76,2.11-4.92,4.06-1.18,1.06-2.56,2.3-4.09,3.68-.81.72-1.67,1.49-2.57,2.29-.46.41-.93.83-1.42,1.26-.48.41-1.01.94-1.43,1.19-.94.59-2.13.16-2.17-.31.05-.36.33-.64.55-1.04ZM1839.36,1037.81c-5.73,2.7-11.55,5.45-17.6,8.3-4.16,2-8.43,4.06-12.86,6.19-1.6.77-3.22,1.57-4.98,2.47-1.22.63-2.45,1.25-3.65,1.87-.61.31-1.22.64-1.84.93-.65.28-1.42-.12-1.62-.71-.11-.29-.1-.62.04-.88.15-.26.35-.48.52-.72.35-.47.7-.94,1.04-1.39.69-.93,1.35-1.81,1.96-2.63,1.05-1.4,2.09-2.78,3.11-4.14,2.39-3.12,4.75-6.2,7.07-9.23,2.97-3.86,5.89-7.67,8.77-11.41.13-.17.26-.33.38-.5,5,3.08,9.99,6.14,14.94,9.19,1.58.89,3.15,1.78,4.72,2.67ZM1775.17,1011.9c.17-.42.42-.77.62-1.15.85-1.49,1.55-2.74,2.11-3.72.11-.19.14-.23.16-.28.71-1.23,1.37-2.41,2-3.58.16-.3.32-.59.47-.87l.12-.22.22-.39c.15-.26.29-.52.44-.78.27-.48.52-.94.78-1.4,1.12.88,2.24,1.76,3.37,2.65,2.25,1.75,4.53,3.54,6.89,5.28-.32.13-.66.27-.98.4-1.4.58-2.77,1.15-4.11,1.71-.64.27-1.26.54-1.87.8-2.55,1.1-4.89,2.1-6.99,3-.55.2-1.06.55-1.63.56-.57.03-1.08-.27-1.38-.67-.3-.41-.38-.93-.23-1.36ZM1751.53,1002.36c-1.12-2.95-2.16-6.01-3.27-9.11-.25-.75-.51-1.49-.76-2.25l-.36-.9c-.24-.64-.49-1.29-.74-1.94-.99-2.66-2.01-5.63-3-8.84-.99-3.21-1.96-6.66-2.85-10.24-.45-1.79-.87-3.62-1.27-5.46-.05-.22-.13-.47-.02-.68.1-.21.32-.33.52-.31.21.02.34.2.49.31l.45.39,1.82,1.61c2.87,2.52,5.74,5.39,8.55,7.9,1.47,1.35,2.88,2.7,4.24,4.01.67.65,1.33,1.29,1.99,1.93l1.95,1.8.93.87.45.43,1.13.96c1.52,1.3,3.04,2.61,4.57,3.91,1.53,1.31,3.06,2.62,4.59,3.93.08.07.17.13.25.2-.23.39-.47.8-.7,1.18-4.36,7.23-8.43,13.99-12.13,20.13-.81,1.4-1.25,2.62-1.54,3.74-1.77-4.32-3.55-8.85-5.3-13.58ZM1763.15,1030.5c.14.04.29.09.43.14,1.07.23,2.03.52,3.43.61.34.02.61.09,1.01.07l1.16-.03c.71.03,1.68-.19,2.56-.33,1.89-.45,4.06-1.43,6.11-2.25,6.84-2.78,13.35-5.42,19.55-7.94,1.85-.74,3.65-1.47,5.4-2.18.31-.12.62-.24.92-.35,1.11-.39,2.01-.77,2.72-.88.12.08.24.17.37.25.01,0,.03.02.04.03.02.09.03.18,0,.28-.07.26-.31.43-.47.61-.33.34-.64.66-.94.97-.57.56-1.01.96-1.34,1.22-2.74,3.36-5.28,6.48-7.72,9.47-1.28,1.59-2.53,3.14-3.77,4.68-1.98,2.5-3.93,4.97-5.87,7.43-3.49,4.44-6.96,8.88-10.46,13.4h0c-3.18-5.45-7.24-12.79-11.53-21.8-.53-1.1-1.06-2.24-1.59-3.39ZM1855.67,1095.99c-7.59,10.51-15.09,21.08-22.48,31.73-9,12.53-20.35,28.67-32.3,46.82-11.74,17.88-24.17,37.61-35.18,58.01,6.13-19.14,13.52-38.52,22.18-56.13,1.14-2.29,2.27-4.56,3.4-6.82.54-1.14,1.15-2.23,1.76-3.31.6-1.09,1.2-2.17,1.8-3.25,1.21-2.14,2.35-4.32,3.58-6.39,1.25-2.04,2.49-4.07,3.72-6.07,1.2-2.04,2.51-3.9,3.76-5.78l.94-1.4c.46-.68.92-1.35,1.38-2.02.62-.87,1.3-1.71,1.99-2.55.68-.84,1.36-1.68,2.04-2.51,1.35-1.66,2.69-3.32,4.02-4.95l.99-1.22,1.08-1.21c.72-.8,1.44-1.6,2.15-2.4,2.83-3.13,5.46-6.36,8.33-9.23,15.15-15.17,26.82-21.32,26.82-21.32ZM1755.91,1268.11c.3-1.21.59-2.41.89-3.63.59-2.4,1.19-4.82,1.79-7.27.3-1.22.6-2.45.91-3.69.26-.95.55-1.9.83-2.86.05.15.08.31.14.45.9,2.55,2.49,4.59,4.43,6.07-3.07,3.62-6.06,7.26-8.98,10.92ZM1893.94,1150.53c-2.54,1.53-4.99,3.2-7.5,4.76l-7.53,4.71c-2.48,1.61-4.98,3.2-7.49,4.77-5.82,3.68-12.6,8.16-19.98,13.37,6.87-7.57,15.93-17.41,26.04-28.33,6.14-6.61,12.66-13.63,19.31-20.79,3.33-3.57,6.69-7.18,10.05-10.78,1.68-1.8,3.36-3.6,5.04-5.4l2.51-2.69.52-.53c1.27-1.27,2.38-2.37,3.29-3.23.1-.11.24-.22.41-.2.16.02.33.13.41.31.19.37-.11.77-.21,1.12-.26.67-.51,1.31-.74,1.91-.06.17-.09.22-.12.28l-.09.18c-.05.1-.1.21-.15.3-.04.08-.09.16-.13.23v.02s-.02.01-.02.01l-.07.2c-.12.34-.23.68-.34,1.02-.43,1.29-.85,2.55-1.25,3.77-3.34,10.05-5.88,17.67-7.38,22.19-.19.82-.42,1.65-.55,2.35-.05.62-.09,1.2-.14,1.75-.01.09-.01.16-.02.23-2.32,1.29-4.47,2.54-6.34,3.76-2.5,1.58-5.02,3.15-7.54,4.7ZM1993.09,1109.17c-1.75.41-3.62.85-5.59,1.32-1.98.47-4.02,1.09-6.17,1.68-4.29,1.23-8.95,2.48-13.71,4.12-2.84.94-5.76,1.9-8.7,2.92,4.13-4.61,8.12-9.14,11.67-13.33,2.3-2.71,4.41-5.27,6.27-7.62,11.76,3.65,21.85,6.41,29.72,8.41l-4.61.61c-2.39.39-5.37,1.11-8.87,1.9Z"
     id="path1"
     style="fill:#f9f9f9" />
</svg>
