<?xml version="1.0" encoding="UTF-8"?>
<svg id="Layer_1" xmlns="http://www.w3.org/2000/svg" version="1.1" viewBox="0 0 595.28 841.89">
  <!-- Generator: Adobe Illustrator 29.7.1, SVG Export Plug-In . SVG Version: 2.1.1 Build 8)  -->
  <defs>
    <style>
      .st0 {
        fill: #fff;
      }
    </style>
  </defs>
  <g>
    <path class="st0" d="M166.72,433.95v-43.26h5.22v43.26h-5.22Z"/>
    <path class="st0" d="M209.95,422.23h-22.8c.78,4.98,4.38,7.56,9.18,7.56,3.42,0,6.54-1.56,8.16-4.38l4.5,1.8c-2.4,4.86-7.44,7.5-12.84,7.5-7.98,0-14.4-5.94-14.4-14.82s6.42-14.64,14.4-14.64,13.92,5.76,13.92,14.64c0,.78-.06,1.56-.12,2.34ZM204.85,417.73c-.66-4.8-4.08-7.56-8.7-7.56s-8.1,2.52-8.94,7.56h17.64Z"/>
    <path class="st0" d="M230.23,405.97v4.5h-6.06v23.52h-5.22v-23.52h-5.04v-4.5h5.04v-10.56h5.22v10.56h6.06Z"/>
    <path class="st0" d="M239.69,406.75c3.36-4.74,5.34-8.76,4.56-16.08h5.46c.66,6.9-2.28,13.32-6.9,17.22l-3.12-1.14Z"/>
    <path class="st0" d="M254.23,425.77h4.86c.06,2.4,2.16,4.38,5.58,4.38s5.64-1.74,5.64-4.02c0-2.1-1.62-3.18-3.84-3.66l-3.84-.9c-4.68-1.26-7.38-3.54-7.38-8.04s3.96-8.28,9.6-8.28c4.74,0,9.66,2.52,9.66,8.16h-5.04c-.06-2.16-2.28-3.6-4.5-3.6-2.7,0-4.5,1.74-4.5,3.9,0,1.92,1.8,2.94,3.6,3.36l4.14,1.02c5.82,1.44,7.32,4.92,7.32,8.1,0,5.22-5.04,8.52-10.86,8.52-5.04,0-10.2-3.18-10.44-8.94Z"/>
  </g>
  <g>
    <path class="st0" d="M181.75,463.17c0-8.88,7.02-14.7,15.06-14.7,4.38,0,8.22,1.74,10.68,4.44l-3.3,3.42c-1.74-1.8-4.26-2.94-7.2-2.94-5.52,0-9.96,4.02-9.96,9.78s4.44,9.84,9.96,9.84c2.94,0,5.46-1.14,7.2-2.94l3.3,3.42c-2.46,2.76-6.3,4.44-10.68,4.44-8.04,0-15.06-5.88-15.06-14.76Z"/>
    <path class="st0" d="M244.75,461.01v16.2h-5.22v-15.9c0-4.68-2.88-7.68-6.78-7.68s-8.58,2.34-8.58,8.4v15.18h-5.22v-43.26h5.22v19.5c1.68-3.42,6.24-4.98,9.3-4.98,6.96,0,11.34,4.68,11.28,12.54Z"/>
    <path class="st0" d="M275.53,449.19h5.22v28.02h-5.22v-4.98c-1.86,3.36-5.76,5.7-10.26,5.7-7.32,0-13.74-6.18-13.74-14.76s6.06-14.7,13.98-14.7c4.2,0,8.16,1.8,10.02,5.1v-4.38ZM275.53,463.17c0-5.76-4.86-9.78-9.54-9.78-5.1,0-9.18,4.5-9.18,9.78s4.08,9.84,9.24,9.84,9.48-4.14,9.48-9.84Z"/>
    <path class="st0" d="M305.8,449.19v4.5h-6.06v23.52h-5.22v-23.52h-5.04v-4.5h5.04v-10.56h5.22v10.56h6.06Z"/>
  </g>
</svg>