<?xml version="1.0" encoding="UTF-8"?>
<svg id="Layer_1" xmlns="http://www.w3.org/2000/svg" version="1.1" viewBox="0 0 595.28 841.89">
  <!-- Generator: Adobe Illustrator 29.7.1, SVG Export Plug-In . SVG Version: 2.1.1 Build 8)  -->
  <defs>
    <style>
      .st0 {
        fill: #fff;
      }
    </style>
  </defs>
  <path class="st0" d="M473.21,377.87c-1.24-9.35-1.42-25.45,7.26-30.85.16-.1.27-.24.41-.37,7.1-2.27,12.01-5.46,8.15-9.74l-104.7-31.55-169.53,23.57s-19.41,2.77-17.68,32.94c.94,16.42,6.09,24.48,10.59,28.45l-13.91,4.19c-3.86,4.29,1.05,7.47,8.15,9.74.13.13.25.27.41.37,8.68,5.41,8.51,21.51,7.26,30.86-31.17,8.85-19.98,11.73-19.98,11.73l6.84,1.65c-4.81,4.35-9.59,12.59-8.69,28.22,1.74,30.16,17.68,32.24,17.68,32.24l110.94,36.06,167.45-40.56s11.19-2.89-19.98-11.74c-1.25-9.33-1.43-25.43,7.27-30.85.16-.1.28-.24.41-.36,7.1-2.27,12.01-5.45,8.15-9.74l-7.28-2.2c4.85-2.93,12.15-10.58,13.29-30.45.79-13.67-2.78-21.67-6.9-26.39l14.39-3.48s11.19-2.88-19.98-11.73ZM333.14,377.48l28.16-5.79,95.16-19.56,14.18-2.92c-4.53,8.29-4.34,19.64-3.59,26.93.16,1.65.35,3.16.54,4.3l-15.52,3.86-120.11,29.88,1.18-36.71ZM212.18,406.83l14.18,2.92,91.39,18.79,7.98,1.64h0l23.94,4.92,1.18,36.71-123.45-30.71-12.17-3.02c.18-1.15.37-2.65.54-4.31.75-7.29.94-18.64-3.6-26.93ZM206.68,360.42c-.17-8.02,1.26-13.82,4.15-16.77,1.84-1.88,4.01-2.27,5.5-2.27.79,0,1.35.11,1.39.11l73.05,23.81,36.44,11.88-1.2,36.97-102.24-28.66-5.4-1.51c-.2-.06-.47-.09-.67-.1-.42-.03-10.53-.96-11.02-23.45ZM316.67,529.36l-107.63-30.18c-.2-.06-.47-.1-.67-.11-.43-.03-10.54-.96-11.03-23.44-.17-8.03,1.26-13.83,4.15-16.78,1.84-1.88,4.01-2.27,5.5-2.27.79,0,1.35.11,1.39.11,0,0,0,0,0,0l109.48,35.7-1.19,36.97ZM457.71,491.36c.17,1.66.36,3.16.54,4.31l-135.63,33.74,1.19-36.71,29-5.96,4.28,1.04,16.05-5.22,73.99-15.2,14.18-2.92c-4.53,8.29-4.35,19.64-3.6,26.93ZM465.18,441.47c-.25,0-.49.04-.73.11l-10.23,2.86-97.4,27.31-1.19-36.97,31.96-10.42,77.38-25.23s4.07-.91,7.05,2.12c2.88,2.95,4.32,8.75,4.15,16.77-.5,22.48-10.62,23.41-10.99,23.44Z"/>
  <g>
    <path class="st0" d="M123.54,440.3v59.46c0,7.79,6.45,14.11,14.24,14.11s14.24-6.32,14.24-14.11v-59.46h-28.48Z"/>
    <circle class="st0" cx="142.94" cy="425.13" r="8.82"/>
    <circle class="st0" cx="128.83" cy="393.38" r="5.29"/>
    <path class="st0" d="M170.81,305.03l-9.3,10.04v184.82s-.25,23.48-23.73,23.48-23.73-23.48-23.73-23.48v-184.82l-9.42-10.04h66.38M170,295.53h-65.38c-3.78,0-7.19,2.24-8.7,5.7-1.51,3.46-.77,7.49,1.79,10.25l6.83,7.31v181.09c0,13.25,9.04,32.97,33.23,32.97s33.23-19.72,33.23-32.97v-181.15l6.34-7.33c2.52-2.78,3.02-6.79,1.5-10.22-1.52-3.43-5-5.65-8.76-5.65h-.08Z"/>
  </g>
</svg>