<?xml version="1.0" encoding="UTF-8"?>
<svg id="Layer_1" xmlns="http://www.w3.org/2000/svg" version="1.1" viewBox="0 0 595.28 841.89">
  <!-- Generator: Adobe Illustrator 29.7.1, SVG Export Plug-In . SVG Version: 2.1.1 Build 8)  -->
  <defs>
    <style>
      .st0 {
        fill-rule: evenodd;
      }

      .st0, .st1 {
        fill: #fff;
      }
    </style>
  </defs>
  <g id="laptop">
    <g id="laptop_2">
      <path id="Combined_Shape" class="st0" d="M457.91,310.45v140c0,5.52-4.48,10-10,10s-10-4.48-10-10v-140c0-5.53-4.47-10-10-10H167.91c-5.53,0-10,4.47-10,10v170h240v-140.16h-200v109.28c0,5.52-4.48,10-10,10s-10-4.48-10-10v-115.28c0-7.74,6.28-14,14-14h212c7.72,0,14,6.26,14,14v146.16h60c11.04,0,20,8.96,20,20v20c0,22.1-17.91,40-40,40H137.91c-22.09,0-40-17.9-40-40v-20c0-11.04,8.96-20,20-20h20v-170c0-16.57,13.42-30,30-30h260c16.58,0,30,13.43,30,30ZM258.53,500.45v10c0,5.52,4.48,10,10,10h60c5.52,0,10-4.48,10-10v-10h139.38v20c0,11.05-8.96,20-20,20H137.91c-11.05,0-20-8.95-20-20v-20h20v10c0,5.52,4.48,10,10,10s10-4.48,10-10v-10h100.62Z"/>
    </g>
  </g>
  <circle class="st1" cx="279.27" cy="426.21" r="3.7"/>
  <circle class="st1" cx="286.67" cy="407.69" r="3.7"/>
  <circle class="st1" cx="260.75" cy="411.39" r="3.7"/>
  <path class="st1" d="M353.34,370.65c-10.21,0-18.52-8.31-18.52-18.52,0-1.69-.21-3.33-.57-4.92-.22-1.61-2.75-2.1-3.99-1.91-1.43.22-3.11.89-3.42,2.82-.04,1.3.56,2.62.56,4,0,14.24,11.54,25.84,25.76,25.92,9.41.06,17.62,7.22,18.58,16.58,1.13,11.08-7.57,20.45-18.42,20.45h-3.61c-2.14,0-3.78,1.77-3.79,3.9-.11,14.2-11.7,25.72-25.92,25.72h-58.42c-13.53,0-25.42-10.02-26.65-23.49-1.41-15.38,10.72-28.36,25.81-28.36h61.08c8.8,0,16.2,5.38,20.64,12.98,1.03,1.76,3.28,2.35,5.05,1.33l9.39-5.42c1.63-.94,2.53-2.94,1.83-4.7-.86-2.15-3.37-2.97-5.3-1.85l-6.53,3.77s-.08.01-.11-.02c-1.98-2.66-4.36-4.96-6.99-6.9-.04-.03-.05-.07-.02-.11l3.8-6.59c.34-.58.5-1.22.5-1.85,0-1.39-.78-2.74-2.17-3.38-1.79-.82-3.91.09-4.9,1.8l-3.64,6.31s-.07.05-.11.04c-3.3-1.43-6.82-2.35-10.47-2.65-.03,0-.06-.03-.07-.06l-2.82-8.46c-.59-1.78-2.36-3.04-4.2-2.71-2.28.41-3.61,2.68-2.9,4.83l2.04,6.12c.02.06-.02.12-.08.12h-9.47s-.09-.04-.09-.09v-7.05c0-1.88-1.28-3.66-3.15-3.93-2.29-.33-4.26,1.43-4.26,3.66v7.32s-.04.09-.09.09h-15.7s-.07-.02-.08-.06l-2.76-8.29c-.59-1.78-2.36-3.04-4.21-2.71-2.28.41-3.61,2.68-2.89,4.83l2.04,6.12c.02.06-.02.11-.08.11h-9.47s-.09-.04-.09-.09v-7.05c0-1.88-1.28-3.66-3.15-3.93-2.29-.33-4.26,1.43-4.26,3.66v7.55s-.03.08-.08.08c-3.34.38-6.53,1.26-9.5,2.55-.04.02-.09,0-.11-.04l-3.65-6.32c-.94-1.63-2.94-2.53-4.69-1.82-2.15.86-2.97,3.38-1.85,5.3l3.8,6.57s.01.08-.02.11c-2.64,1.96-4.98,4.3-6.94,6.94-.03.03-.07.04-.11.02l-6.33-3.66c-1.63-.94-3.81-.72-4.98.76-1.43,1.82-.89,4.41,1.04,5.52l6.55,3.78s.05.07.04.11c-1.3,2.97-2.17,6.16-2.55,9.5,0,.04-.04.08-.08.08h-7.29c-1.89,0-3.66,1.29-3.93,3.16-.33,2.29,1.44,4.25,3.66,4.25h7.55s.08.03.08.08c.41,3.61,1.42,7.03,2.89,10.2.02.03,0,.07-.02.1l-7.42,7.14c-1.36,1.31-1.75,3.46-.65,4.99,1.35,1.88,3.99,2.07,5.59.53l6.42-6.18s.09-.03.13,0c1.84,2.33,3.98,4.4,6.36,6.17.03.03.04.07.02.11l-3.66,6.34c-.94,1.64-.72,3.82.77,4.99,1.82,1.43,4.4.88,5.51-1.05l3.78-6.55s.07-.05.11-.04c2.97,1.3,6.16,2.17,9.5,2.55.04,0,.08.04.08.08v7.28c0,1.88,1.28,3.66,3.15,3.93,2.29.33,4.26-1.43,4.26-3.66v-7.32s.04-.09.09-.09h11.99s.07.02.08.06l2.75,8.25c.6,1.79,2.37,3.07,4.23,2.74,1.86-.33,3.08-1.92,3.08-3.65,0-.39-.06-.78-.19-1.17l-2.04-6.12c-.02-.06.02-.12.08-.12h13.17s.09.04.09.09v7.05c0,1.88,1.28,3.66,3.15,3.93,2.29.33,4.26-1.43,4.26-3.66v-7.32s.04-.09.09-.09h9.47c.06,0,.1.06.08.12l-1.96,5.87c-.6,1.79.06,3.88,1.75,4.73,2.07,1.04,4.49-.02,5.2-2.13l2.89-8.65s.04-.05.07-.06c3.71-.31,7.23-1.23,10.5-2.66.04-.02.09,0,.11.04l3.64,6.3c.98,1.7,3.1,2.6,4.88,1.78,1.39-.64,2.18-1.99,2.18-3.38,0-.63-.16-1.27-.5-1.85l-3.78-6.55s-.01-.08.02-.11c2.76-2.05,5.17-4.52,7.19-7.31.02-.03.06-.04.1-.03l10.19,4.24c1.81.75,4.02.18,4.95-1.55.31-.57.45-1.17.45-1.76,0-1.45-.86-2.83-2.28-3.42l-9.61-4.01s-.06-.07-.05-.11c1.19-2.84,2.01-5.88,2.37-9.05,0-.04.04-.08.08-.08h.06c11.12,0,21.31-6.95,24.67-17.56,5.64-17.82-7.6-34.29-24.61-34.29Z"/>
  <path class="st1" d="M297.78,422.5c0,8.17,6.64,14.81,14.81,14.81,8.17,0,14.81-6.64,14.81-14.81,0-8.17-6.64-14.81-14.81-14.81-8.17,0-14.81,6.64-14.81,14.81ZM320.01,422.5c0,4.09-3.32,7.41-7.41,7.41-4.09,0-7.41-3.32-7.41-7.41,0-4.09,3.32-7.41,7.41-7.41s7.41,3.32,7.41,7.41Z"/>
</svg>