<?xml version="1.0" encoding="UTF-8"?>
<svg id="Layer_1" xmlns="http://www.w3.org/2000/svg" version="1.1" viewBox="0 0 595.28 841.89">
  <!-- Generator: Adobe Illustrator 29.7.1, SVG Export Plug-In . SVG Version: 2.1.1 Build 8)  -->
  <defs>
    <style>
      .st0 {
        fill: #010101;
        stroke: #fff;
        stroke-miterlimit: 10;
        stroke-width: 6px;
      }
    </style>
  </defs>
  <path class="st0" d="M294.87,546.12c-13.67,0-27.76-1-43.54-3.05-43.72-5.27-81.12-10.18-121.56-17-1.38-.32-2.73-.6-4.08-.89-7.45-1.58-14.49-3.08-20.29-8.23-11.19-10.55-10.54-26.98-4.94-38.59,14.99-28.68,45.95-37.55,63.07-40.28,5.82-1.01,10.76-1.01,16.48-1.01,64.21-7.52,120.34-7.52,176.59,0,4.28.74,8.6,1.38,12.79,2.01,18.46,2.75,37.54,5.59,54.94,17.07,6.82,5.14,9.7,12.29,10.76,19.6h.05c.04.39.08.78.11,1.16.5,4.17.45,8.36.23,12.22l-.48-.03c-.92,6.31-3.16,11.6-6.7,15.79-.72.75-1.41,1.33-2.06,1.9-1.13.97-2.11,1.8-2.69,3l-.05.11-.09.07c-26.05,20-56.03,27.07-87.02,33.09-2.92.5-5.88.76-8.73,1.01-2.83.25-5.77.5-8.64,1-8.07.7-16.03,1.05-24.14,1.05ZM271.3,432.44c-29.06,0-59.12,1.88-91.22,5.64-5.73,0-10.63,0-16.37,1-16.94,2.7-47.56,11.46-62.34,39.74-5.44,11.27-6.09,27.22,4.72,37.4,5.59,4.97,12.5,6.43,19.82,7.99,1.35.29,2.71.58,4.06.89,40.39,6.82,77.78,11.72,121.49,16.99,25.05,3.24,45.84,3.86,67.42,2,2.87-.5,5.83-.75,8.68-1,2.83-.25,5.77-.5,8.64-1,30.83-5.99,60.65-13.01,86.5-32.83.67-1.33,1.75-2.25,2.89-3.22.64-.55,1.31-1.11,1.97-1.8,5.41-6.41,7.67-15.55,6.71-27.15-.9-7.49-3.61-14.91-10.5-20.1-17.19-11.34-35.32-14.04-54.52-16.9-4.19-.62-8.52-1.27-12.79-2.01-28.06-3.75-56.11-5.63-85.16-5.63Z"/>
  <path class="st0" d="M359.67,796.06l-.79-.62c5.96-7.63,12.32-12.98,17.93-17.71,7.5-6.31,13.42-11.3,15.68-19.07,4.77-16.39-6.02-33.7-18.84-43.58-11.18-8.62-25.7-14.1-43.16-16.28-15.53-1.94-31.42-1.1-46.79-.29l-48.07,2.55c-18.82,1-40.16,2.13-58.34,10.93-23.08,11.17-32.29,31.35-31.18,46.38.86,11.66,7.57,22.72,17.51,28.88l-.53.85c-10.21-6.32-17.09-17.68-17.98-29.65-.7-9.5,2.25-19.17,8.52-27.97,5.72-8.02,13.96-14.91,23.22-19.39,18.36-8.89,39.8-10.02,58.72-11.03l48.07-2.55c15.41-.82,31.35-1.66,46.97.29,17.64,2.21,32.32,7.75,43.64,16.48,13.09,10.09,24.1,27.81,19.19,44.65-2.35,8.06-8.67,13.39-16,19.56-5.57,4.69-11.89,10.01-17.78,17.56Z"/>
  <path class="st0" d="M382.79,788.97l-.62-.78c15.69-12.53,23.33-36.63,19.02-59.98-4.44-24.05-20.22-42.07-43.29-49.42-7.9-2.52-16.6-4.29-27.37-5.58-20.3-2.43-40.95-4.03-61.37-4.75-17.51-.62-38.08-.73-57.83,3.08-20.78,4.02-38.81,12.2-52.12,23.66-14.41,12.41-26.87,38.4-27.78,57.94l-1-.05c.91-19.77,13.53-46.08,28.12-58.65,13.45-11.58,31.63-19.84,52.58-23.89,19.86-3.84,40.49-3.72,58.06-3.1,20.45.72,41.12,2.32,61.45,4.76,10.83,1.3,19.59,3.08,27.55,5.62,23.43,7.47,39.46,25.76,43.97,50.19,4.38,23.7-3.41,48.2-19.38,60.95Z"/>
  <path class="st0" d="M140.81,784.58l-.99-.15c1.59-10.64-3.5-20.17-8.88-30.25-2.59-4.85-5.27-9.87-7.11-14.99-3.13-8.71-3.88-18.04-4.61-27.05l-15.81-195.93,1-.08,15.81,195.93c.72,8.95,1.47,18.2,4.55,26.79,1.81,5.05,4.47,10.03,7.05,14.85,5.23,9.78,10.63,19.9,8.99,30.87Z"/>
  <path class="st0" d="M394.87,783.58l-.81-.58c10.32-14.34,12.31-32.85,14.06-49.19l26.52-246.73.99.11-26.52,246.73c-1.68,15.64-3.77,35.11-14.25,49.67Z"/>
</svg>