<?xml version="1.0" encoding="UTF-8"?>
<svg id="Capa_1" xmlns="http://www.w3.org/2000/svg" version="1.1" viewBox="0 0 800 800">
  <!-- Generator: Adobe Illustrator 29.7.1, SVG Export Plug-In . SVG Version: 2.1.1 Build 8)  -->
  <path d="M742.93,276.41c-3.24-24.32-3.69-66.21,18.9-80.27.4-.26.7-.63,1.06-.95,18.47-5.91,31.25-14.2,21.22-25.35l-272.42-82.08-441.11,61.33s-50.51,7.22-46,85.7c2.45,42.71,15.85,63.69,27.56,74.01l-36.2,10.91c-10.05,11.15,2.73,19.45,21.2,25.34.35.33.65.7,1.06.96,22.57,14.08,22.14,55.96,18.89,80.28-81.1,23.03-51.99,30.53-51.99,30.53l17.79,4.3c-12.51,11.31-24.94,32.75-22.61,73.42,4.51,78.46,46,83.88,46,83.88l288.66,93.82,435.69-105.53s29.12-7.52-52-30.55c-3.26-24.29-3.71-66.16,18.91-80.27.42-.25.72-.63,1.06-.95,18.47-5.91,31.24-14.19,21.2-25.34l-18.94-5.72c12.63-7.62,31.6-27.52,34.57-79.22,2.05-35.56-7.23-56.39-17.97-68.65l37.43-9.06s29.12-7.5-51.98-30.53ZM378.5,275.41l73.27-15.06,247.6-50.88,36.89-7.59c-11.79,21.57-11.29,51.1-9.34,70.07.43,4.29.92,8.21,1.4,11.19l-40.38,10.04-312.52,77.74,3.08-95.52ZM63.77,351.77l36.88,7.59,237.79,48.88,20.77,4.25h0l62.3,12.8,3.07,95.52-321.2-79.91-31.67-7.87c.47-2.98.96-6.9,1.4-11.2,1.94-18.96,2.44-48.49-9.35-70.07ZM49.44,231.01c-.45-20.87,3.27-35.97,10.79-43.64,4.78-4.9,10.43-5.92,14.3-5.92,2.05,0,3.52.28,3.62.28l190.06,61.96,94.82,30.92-3.11,96.19-266.02-74.58-14.04-3.93c-.52-.15-1.22-.25-1.75-.27-1.1-.08-27.4-2.5-28.68-61.01ZM335.63,670.57l-280.05-78.51c-.52-.15-1.21-.25-1.75-.28-1.11-.07-27.43-2.49-28.7-60.99-.45-20.9,3.29-35.98,10.79-43.66,4.8-4.9,10.45-5.92,14.31-5.92,2.05,0,3.52.27,3.63.27,0,0,.01,0,0,0l284.87,92.89-3.09,96.19ZM702.6,571.71c.44,4.31.93,8.22,1.41,11.2l-352.9,87.79,3.08-95.52,75.45-15.51,11.14,2.7,41.76-13.57,192.51-39.56,36.9-7.59c-11.8,21.57-11.31,51.11-9.36,70.07ZM722.04,441.89c-.64.01-1.28.1-1.89.29l-26.62,7.45-253.43,71.06-3.1-96.19,83.15-27.12,201.33-65.66s10.59-2.36,18.35,5.53c7.51,7.67,11.23,22.77,10.79,43.64-1.31,58.49-27.63,60.92-28.58,60.99Z"/>
</svg>