<?xml version="1.0" encoding="UTF-8"?>
<svg id="Capa_1" xmlns="http://www.w3.org/2000/svg" version="1.1" viewBox="0 0 800 800">
  <!-- Generator: Adobe Illustrator 29.7.1, SVG Export Plug-In . SVG Version: 2.1.1 Build 8)  -->
  <defs>
    <style>
      .st0, .st1 {
        fill: #fff;
      }

      .st1 {
        font-family: Hobeaux-Black, Hobeaux;
        font-size: 100px;
        font-weight: 800;
      }
    </style>
  </defs>
  <path class="st0" d="M551.39,394.6h-20.4c0-66.58-54.15-120.71-120.69-120.71v-20.38c77.81-.04,141.09,63.27,141.09,141.09ZM410.29,288.71v20.38c47.17,0,85.5,38.36,85.47,85.51h20.4c0-58.38-47.46-105.88-105.87-105.88ZM406.21,192.51c-110.29,0-200,89.71-200,200.01,0,110.28,89.71,199.99,200,199.99,6.82,0,12.33-5.51,12.33-12.32,0-6.85-5.51-12.37-12.33-12.37-96.69,0-175.33-78.66-175.33-175.3,0-96.69,78.64-175.34,175.33-175.34s175.31,78.66,175.31,175.34c0,40.4-21.5,80.43-52.27,97.4-11.18,6.15-23.3,9.2-36.23,9.32,7.76-4.62,14.49-10.86,19.48-18.72.98-1.48,2.28-2.79,2.91-4.4,4.02-9.66,4.37-20.62,6.8-30.83,2.98-13.03-57.04-38.49-62.25-22.21-1.89,6.02-4.78,25.08-8.56,30.1-3.37,4.48-11.67,2.35-16.86-2.06-13.68-11.66-28.95-28.79-42.34-42.33h.02c-.34-.37-.76-.76-1.13-1.14-.38-.36-.76-.76-1.14-1.13v.02c-13.54-13.42-30.69-28.65-42.33-42.36-4.41-5.19-6.54-13.49-2.06-16.86,5.02-3.81,24.07-6.65,30.1-8.56,16.24-5.19-9.18-65.24-22.24-62.25-10.19,2.39-21.15,2.78-30.81,6.77-1.64.7-2.91,1.96-4.4,2.94-34.27,21.72-38.69,74.47-5.24,113.78,12.75,15.04,26.05,29.58,39.74,43.79l-.07.05c.38.38.77.73,1.16,1.1.37.38.72.76,1.08,1.16l.07-.07c14.2,13.69,31.04,33.86,58.4,52.1,57.59,38.46,101.78,27.72,127.81,13.45,44.94-24.75,65.05-77.61,65.05-119.01,0-110.35-89.72-200.06-200-200.06Z"/>
  <text class="st1" transform="translate(179.78 701.26)"><tspan x="0" y="0">Let’s Chat!</tspan></text>
</svg>